<svg width="56" height="23" viewBox="0 0 56 23" fill="none" xmlns="http://www.w3.org/2000/svg">
<path fill-rule="evenodd" clip-rule="evenodd" d="M10.7487 3.04524C10.1124 3.80635 9.09437 4.40667 8.07634 4.32091C7.94909 3.2918 8.4475 2.19836 9.03075 1.52301C9.66702 0.740453 10.7805 0.183016 11.6819 0.140137C11.7879 1.21213 11.3743 2.26268 10.7487 3.04524ZM11.6713 4.52497C10.7744 4.47279 9.95605 4.79763 9.29505 5.06001C8.86967 5.22886 8.50946 5.37185 8.23542 5.37185C7.92788 5.37185 7.5528 5.22122 7.13166 5.05209C6.57984 4.83049 5.94896 4.57713 5.28737 4.58929C3.77093 4.61073 2.36053 5.47904 1.5864 6.86192C-0.00426817 9.62766 1.17283 13.7227 2.71048 15.9739C3.4634 17.0887 4.36478 18.3108 5.55248 18.2679C6.075 18.248 6.45087 18.0868 6.83986 17.9199C7.28769 17.7278 7.75291 17.5283 8.47932 17.5283C9.18054 17.5283 9.62542 17.7226 10.0525 17.9092C10.4585 18.0866 10.8485 18.2569 11.4274 18.2465C12.6575 18.225 13.4316 17.1316 14.1845 16.0167C14.9971 14.8202 15.3541 13.6524 15.4083 13.4752L15.4147 13.4547C15.4134 13.4534 15.4033 13.4487 15.3856 13.4405C15.114 13.3148 13.0379 12.3541 13.018 9.77774C12.998 7.61529 14.6647 6.51966 14.9271 6.34719C14.943 6.33669 14.9538 6.32961 14.9587 6.32592C13.8982 4.73937 12.2439 4.56785 11.6713 4.52497ZM20.1865 18.1284V1.41607H26.3901C29.5927 1.41607 31.8302 3.64582 31.8302 6.90468C31.8302 10.1635 29.5503 12.4147 26.3053 12.4147H22.7528V18.1284H20.1865ZM22.7525 3.60258H25.7111C27.9381 3.60258 29.2106 4.80321 29.2106 6.91503C29.2106 9.02686 27.9381 10.2382 25.7005 10.2382H22.7525V3.60258ZM40.3033 16.1236C39.6246 17.4315 38.1294 18.2569 36.5175 18.2569C34.1315 18.2569 32.4666 16.8204 32.4666 14.655C32.4666 12.511 34.0785 11.2782 37.0584 11.096L40.2609 10.903V9.98111C40.2609 8.61968 39.3807 7.88 37.8113 7.88C36.5175 7.88 35.5737 8.55536 35.3829 9.58447H33.0711C33.1453 7.41905 35.1602 5.84322 37.8855 5.84322C40.823 5.84322 42.7318 7.39761 42.7318 9.80959V18.1283H40.3564V16.1236H40.3033ZM37.2068 16.2737C35.8388 16.2737 34.9693 15.6091 34.9693 14.5907C34.9693 13.5401 35.807 12.9291 37.4083 12.8326L40.2609 12.6504V13.5937C40.2609 15.1588 38.9459 16.2737 37.2068 16.2737ZM50.611 18.7825C49.5823 21.7091 48.4052 22.6739 45.9026 22.6739C45.7117 22.6739 45.0754 22.6524 44.927 22.6095V20.6049C45.086 20.6264 45.4784 20.6478 45.6799 20.6478C46.8146 20.6478 47.4508 20.1654 47.8432 18.9112L48.0765 18.1715L43.7287 6.00437H46.4116L49.4339 15.8774H49.4869L52.5092 6.00437H55.1179L50.611 18.7825Z" fill="white"/>
</svg>
