<svg width="50" height="30" viewBox="0 0 50 30" fill="none" xmlns="http://www.w3.org/2000/svg">
<path fill-rule="evenodd" clip-rule="evenodd" d="M25.3297 25.9959C22.749 28.1848 19.4012 29.5062 15.743 29.5062C7.58072 29.5062 0.963867 22.9277 0.963867 14.8128C0.963867 6.69785 7.58072 0.119385 15.743 0.119385C19.4012 0.119385 22.749 1.44077 25.3297 3.62965C27.9105 1.44077 31.2583 0.119385 34.9165 0.119385C43.0788 0.119385 49.6956 6.69785 49.6956 14.8128C49.6956 22.9277 43.0788 29.5062 34.9165 29.5062C31.2583 29.5062 27.9105 28.1848 25.3297 25.9959Z" fill="#ED0006"/>
<path fill-rule="evenodd" clip-rule="evenodd" d="M25.3296 25.9959C28.5071 23.3008 30.5219 19.2907 30.5219 14.8128C30.5219 10.3349 28.5071 6.32477 25.3296 3.62973C27.9104 1.4408 31.2582 0.119385 34.9164 0.119385C43.0787 0.119385 49.6955 6.69785 49.6955 14.8128C49.6955 22.9278 43.0787 29.5062 34.9164 29.5062C31.2582 29.5062 27.9104 28.1848 25.3296 25.9959Z" fill="#F9A000"/>
<path fill-rule="evenodd" clip-rule="evenodd" d="M25.3297 25.996C22.1521 23.3009 20.1372 19.2908 20.1372 14.8128C20.1372 10.3348 22.1521 6.32468 25.3296 3.62964C28.5072 6.32468 30.5221 10.3348 30.5221 14.8129C30.5221 19.2908 28.5073 23.3009 25.3297 25.996Z" fill="#FF5E00"/>
</svg>
