<svg width="54" height="17" viewBox="0 0 54 17" fill="none" xmlns="http://www.w3.org/2000/svg">
<path fill-rule="evenodd" clip-rule="evenodd" d="M13.4186 16.6063H8.82637L5.38273 3.69476C5.21928 3.10082 4.87223 2.57575 4.36173 2.32828C3.08772 1.70637 1.68384 1.21143 0.152344 0.961806V0.46471H7.55012C8.57112 0.46471 9.33687 1.21143 9.46449 2.07866L11.2512 11.3922L15.8413 0.46471H20.3059L13.4186 16.6063ZM22.8586 16.6062H18.5216L22.0929 0.464603H26.4299L22.8586 16.6062ZM32.0409 4.93677C32.1686 4.06739 32.9343 3.57029 33.8277 3.57029C35.2316 3.44548 36.7608 3.6951 38.0371 4.31486L38.8028 0.839493C37.5266 0.342397 36.1227 0.0927734 34.8487 0.0927734C30.6393 0.0927734 27.5763 2.32863 27.5763 5.43171C27.5763 7.79237 29.7459 9.03189 31.2774 9.7786C32.9343 10.5232 33.5724 11.0203 33.4448 11.7648C33.4448 12.8817 32.1686 13.3788 30.8946 13.3788C29.3631 13.3788 27.8316 13.0065 26.4299 12.3846L25.6642 15.8621C27.1957 16.4819 28.8526 16.7315 30.3841 16.7315C35.1039 16.8541 38.0371 14.6204 38.0371 11.2677C38.0371 7.04565 32.0409 6.79818 32.0409 4.93677ZM53.2155 16.6062L49.7718 0.464603H46.073C45.3072 0.464603 44.5415 0.961699 44.2862 1.70627L37.9094 16.6062H42.3741L43.2652 14.2477H48.7508L49.2613 16.6062H53.2155ZM46.711 4.81203L47.985 10.8955H44.4138L46.711 4.81203Z" fill="#3855DB"/>
</svg>
