<svg width="41" height="40" viewBox="0 0 41 40" fill="none" xmlns="http://www.w3.org/2000/svg">
<path d="M29.9016 -0.00012207H11.0983C4.9786 -0.00012207 0 4.85705 0 10.8275V29.1725C0 35.1426 4.9786 39.9998 11.0983 39.9998H29.9019C36.0213 39.9998 40.9999 35.1426 40.9999 29.1725V10.8275C40.9999 4.85705 36.0213 -0.00012207 29.9016 -0.00012207V-0.00012207ZM20.5 30.937C14.3183 30.937 9.28936 26.0307 9.28936 19.9998C9.28936 13.969 14.3183 9.06266 20.5 9.06266C26.6816 9.06266 31.7106 13.969 31.7106 19.9998C31.7106 26.0307 26.6816 30.937 20.5 30.937ZM31.9786 11.642C30.1519 11.642 28.666 10.1924 28.666 8.4102C28.666 6.62798 30.1519 5.17809 31.9786 5.17809C33.8054 5.17809 35.2916 6.62798 35.2916 8.4102C35.2916 10.1924 33.8054 11.642 31.9786 11.642Z" fill="white"/>
</svg>
