<svg width="40" height="40" viewBox="0 0 40 40" fill="none" xmlns="http://www.w3.org/2000/svg">
<path d="M20.0742 -0.00012207H20.0645C9.34674 -0.00012207 0.631104 8.96988 0.631104 19.9999C0.631104 24.3749 2.0015 28.4299 4.33166 31.7224L1.90917 39.1524L9.38075 36.6949C12.4544 38.7899 16.121 39.9999 20.0742 39.9999C30.792 39.9999 39.5076 31.0274 39.5076 19.9999C39.5076 8.97238 30.792 -0.00012207 20.0742 -0.00012207ZM31.3849 28.2424C30.9159 29.6049 29.0547 30.7349 27.5701 31.0649C26.5545 31.2874 25.2278 31.4649 20.7619 29.5599C15.0494 27.1249 11.3707 21.1524 11.084 20.7649C10.8095 20.3774 8.77574 17.6024 8.77574 14.7324C8.77574 11.8624 10.1923 10.4649 10.7633 9.86488C11.2322 9.37238 12.0073 9.14738 12.7509 9.14738C12.9914 9.14738 13.2077 9.15988 13.402 9.16988C13.973 9.19488 14.2598 9.22988 14.6364 10.1574C15.1053 11.3199 16.2473 14.1899 16.3834 14.4849C16.5219 14.7799 16.6604 15.1799 16.466 15.5674C16.2838 15.9674 16.1234 16.1449 15.8367 16.4849C15.55 16.8249 15.2778 17.0849 14.9911 17.4499C14.7287 17.7674 14.4323 18.1074 14.7627 18.6949C15.0932 19.2699 16.2352 21.1874 17.9166 22.7274C20.0864 24.7149 21.8455 25.3499 22.4749 25.6199C22.9438 25.8199 23.5027 25.7724 23.8453 25.3974C24.2802 24.9149 24.8172 24.1149 25.3639 23.3274C25.7526 22.7624 26.2434 22.6924 26.7586 22.8924C27.2834 23.0799 30.0606 24.4924 30.6316 24.7849C31.2026 25.0799 31.5793 25.2199 31.7177 25.4674C31.8538 25.7149 31.8538 26.8774 31.3849 28.2424Z" fill="white"/>
</svg>
